<svg version="1.0" preserveAspectRatio="xMidYMid meet" viewBox="0.31125 0 284.17125 85.80310809326424" zoomAndPan="magnify" xmlns:xlink="http://www.w3.org/1999/xlink" xmlns="http://www.w3.org/2000/svg" style="max-height: 500px" width="284.17125" height="85.80310809326424"><defs><g/><clipPath id="2e0b20d89f"><path clip-rule="nonzero" d="M 0 0.144531 L 16.285156 0.144531 L 16.285156 86.339844 L 0 86.339844 Z M 0 0.144531"/></clipPath><clipPath id="14ed07e332"><path clip-rule="nonzero" d="M 30.023438 35.101562 L 61.171875 35.101562 L 61.171875 50.039062 L 30.023438 50.039062 Z M 30.023438 35.101562"/></clipPath><clipPath id="619ea0bdb7"><path clip-rule="nonzero" d="M 76.042969 0.144531 L 92.328125 0.144531 L 92.328125 85.667969 L 76.042969 85.667969 Z M 76.042969 0.144531"/></clipPath><clipPath id="cdd606ed31"><path clip-rule="nonzero" d="M 61.171875 0.144531 L 92.324219 0.144531 L 92.324219 15.085938 L 61.171875 15.085938 Z M 61.171875 0.144531"/></clipPath><clipPath id="cb352959d1"><path clip-rule="nonzero" d="M 61.171875 71.40625 L 92.324219 71.40625 L 92.324219 86.34375 L 61.171875 86.34375 Z M 61.171875 71.40625"/></clipPath></defs><g clip-path="url(#2e0b20d89f)"><path fill-rule="nonzero" fill-opacity="1" d="M 0 0.144531 L 16.285156 0.144531 L 16.285156 86.34375 L 0 86.34375 Z M 0 0.144531" fill="#d9d9d9"/></g><g fill-opacity="1" fill="#d9d9d9"><g transform="translate(105.91437, 86.226787)"><g><path d="M 0.75 0 L 4.890625 -42.84375 L 19.40625 -42.84375 L 23.484375 0 L 15.359375 0 L 14.765625 -6.9375 L 9.578125 -6.9375 L 9.078125 0 Z M 10.21875 -13.765625 L 14.109375 -13.765625 L 12.21875 -35.5625 L 11.828125 -35.5625 Z M 10.21875 -13.765625"/></g></g></g><g fill-opacity="1" fill="#d9d9d9"><g transform="translate(130.102327, 86.226787)"><g><path d="M 5.59375 0 L 1.140625 -36.515625 L 8.625 -36.515625 L 11.078125 -16.90625 L 13.171875 -36.515625 L 20.796875 -36.515625 L 23.296875 -16.90625 L 25.34375 -36.515625 L 33.5625 -36.515625 L 28.875 0 L 20.15625 0 L 17.5625 -20.75 L 15.265625 0 Z M 5.59375 0"/></g></g></g><g fill-opacity="1" fill="#d9d9d9"><g transform="translate(164.813301, 86.226787)"><g><path d="M 11.765625 0.40625 C 4.554688 0.40625 0.953125 -3.253906 0.953125 -10.578125 L 1 -13.46875 L 9.71875 -13.46875 L 9.78125 -9.171875 C 9.78125 -8.304688 9.941406 -7.648438 10.265625 -7.203125 C 10.597656 -6.753906 11.148438 -6.53125 11.921875 -6.53125 C 13.085938 -6.53125 13.671875 -7.476562 13.671875 -9.375 C 13.671875 -10.769531 13.394531 -11.863281 12.84375 -12.65625 C 12.289062 -13.457031 11.414062 -14.3125 10.21875 -15.21875 L 5.59375 -18.796875 C 3.988281 -20.023438 2.835938 -21.296875 2.140625 -22.609375 C 1.441406 -23.929688 1.09375 -25.785156 1.09375 -28.171875 C 1.09375 -30.035156 1.582031 -31.625 2.5625 -32.9375 C 3.550781 -34.25 4.859375 -35.238281 6.484375 -35.90625 C 8.109375 -36.570312 9.921875 -36.90625 11.921875 -36.90625 C 19.003906 -36.90625 22.546875 -33.378906 22.546875 -26.328125 L 22.546875 -25.640625 L 13.515625 -25.640625 L 13.515625 -27.03125 C 13.515625 -27.894531 13.375 -28.632812 13.09375 -29.25 C 12.8125 -29.863281 12.335938 -30.171875 11.671875 -30.171875 C 11.066406 -30.171875 10.609375 -29.992188 10.296875 -29.640625 C 9.984375 -29.296875 9.828125 -28.828125 9.828125 -28.234375 C 9.828125 -26.898438 10.34375 -25.867188 11.375 -25.140625 L 16.765625 -21.203125 C 18.691406 -19.765625 20.171875 -18.207031 21.203125 -16.53125 C 22.234375 -14.851562 22.75 -12.734375 22.75 -10.171875 C 22.75 -6.785156 21.78125 -4.175781 19.84375 -2.34375 C 17.914062 -0.507812 15.222656 0.40625 11.765625 0.40625 Z M 11.765625 0.40625"/></g></g></g><g fill-opacity="1" fill="#cb6ce6"><g transform="translate(188.508314, 86.226787)"><g><path d="M 1.890625 -42.84375 L 13.71875 -42.84375 C 16.769531 -42.84375 19.0625 -41.992188 20.59375 -40.296875 C 22.125 -38.597656 22.90625 -36.085938 22.9375 -32.765625 L 23.046875 -12.71875 C 23.078125 -8.5 22.34375 -5.320312 20.84375 -3.1875 C 19.351562 -1.0625 16.878906 0 13.421875 0 L 1.890625 0 Z M 12.015625 -7.578125 C 13.578125 -7.578125 14.359375 -8.34375 14.359375 -9.875 L 14.359375 -31.96875 C 14.359375 -32.9375 14.285156 -33.660156 14.140625 -34.140625 C 13.992188 -34.617188 13.71875 -34.941406 13.3125 -35.109375 C 12.914062 -35.273438 12.300781 -35.359375 11.46875 -35.359375 L 10.53125 -35.359375 L 10.53125 -7.578125 Z M 12.015625 -7.578125"/></g></g></g><g fill-opacity="1" fill="#cb6ce6"><g transform="translate(213.095258, 86.226787)"><g><path d="M 8.375 0.40625 C 5.550781 0.40625 3.613281 -0.53125 2.5625 -2.40625 C 1.519531 -4.289062 1 -6.976562 1 -10.46875 C 1 -13.332031 1.367188 -15.523438 2.109375 -17.046875 C 2.859375 -18.578125 3.898438 -19.703125 5.234375 -20.421875 C 6.566406 -21.140625 8.597656 -21.929688 11.328125 -22.796875 L 13.71875 -23.59375 L 13.71875 -27.328125 C 13.71875 -28.296875 13.523438 -29.035156 13.140625 -29.546875 C 12.753906 -30.066406 12.296875 -30.328125 11.765625 -30.328125 C 11.304688 -30.328125 10.898438 -30.109375 10.546875 -29.671875 C 10.203125 -29.242188 10.03125 -28.664062 10.03125 -27.9375 L 10.03125 -25.734375 L 1.546875 -25.734375 L 1.546875 -26.9375 C 1.546875 -30.519531 2.382812 -33.078125 4.0625 -34.609375 C 5.738281 -36.140625 8.472656 -36.90625 12.265625 -36.90625 C 15.296875 -36.90625 17.757812 -36.113281 19.65625 -34.53125 C 21.550781 -32.957031 22.5 -30.722656 22.5 -27.828125 L 22.5 0 L 13.8125 0 L 13.8125 -4.34375 C 13.382812 -2.84375 12.695312 -1.675781 11.75 -0.84375 C 10.800781 -0.0078125 9.675781 0.40625 8.375 0.40625 Z M 11.828125 -6.390625 C 12.484375 -6.390625 12.953125 -6.660156 13.234375 -7.203125 C 13.523438 -7.753906 13.671875 -8.429688 13.671875 -9.234375 L 13.671875 -19.40625 C 12.367188 -18.90625 11.410156 -18.269531 10.796875 -17.5 C 10.179688 -16.738281 9.875 -15.675781 9.875 -14.3125 L 9.875 -9.625 C 9.875 -7.46875 10.523438 -6.390625 11.828125 -6.390625 Z M 11.828125 -6.390625"/></g></g></g><g fill-opacity="1" fill="#cb6ce6"><g transform="translate(237.183481, 86.226787)"><g><path d="M 11.765625 0.40625 C 4.554688 0.40625 0.953125 -3.253906 0.953125 -10.578125 L 1 -13.46875 L 9.71875 -13.46875 L 9.78125 -9.171875 C 9.78125 -8.304688 9.941406 -7.648438 10.265625 -7.203125 C 10.597656 -6.753906 11.148438 -6.53125 11.921875 -6.53125 C 13.085938 -6.53125 13.671875 -7.476562 13.671875 -9.375 C 13.671875 -10.769531 13.394531 -11.863281 12.84375 -12.65625 C 12.289062 -13.457031 11.414062 -14.3125 10.21875 -15.21875 L 5.59375 -18.796875 C 3.988281 -20.023438 2.835938 -21.296875 2.140625 -22.609375 C 1.441406 -23.929688 1.09375 -25.785156 1.09375 -28.171875 C 1.09375 -30.035156 1.582031 -31.625 2.5625 -32.9375 C 3.550781 -34.25 4.859375 -35.238281 6.484375 -35.90625 C 8.109375 -36.570312 9.921875 -36.90625 11.921875 -36.90625 C 19.003906 -36.90625 22.546875 -33.378906 22.546875 -26.328125 L 22.546875 -25.640625 L 13.515625 -25.640625 L 13.515625 -27.03125 C 13.515625 -27.894531 13.375 -28.632812 13.09375 -29.25 C 12.8125 -29.863281 12.335938 -30.171875 11.671875 -30.171875 C 11.066406 -30.171875 10.609375 -29.992188 10.296875 -29.640625 C 9.984375 -29.296875 9.828125 -28.828125 9.828125 -28.234375 C 9.828125 -26.898438 10.34375 -25.867188 11.375 -25.140625 L 16.765625 -21.203125 C 18.691406 -19.765625 20.171875 -18.207031 21.203125 -16.53125 C 22.234375 -14.851562 22.75 -12.734375 22.75 -10.171875 C 22.75 -6.785156 21.78125 -4.175781 19.84375 -2.34375 C 17.914062 -0.507812 15.222656 0.40625 11.765625 0.40625 Z M 11.765625 0.40625"/></g></g></g><g fill-opacity="1" fill="#cb6ce6"><g transform="translate(260.872728, 86.226787)"><g><path d="M 1.75 -43.09375 L 10.71875 -43.09375 L 10.71875 -32.921875 C 11.65625 -35.578125 13.4375 -36.90625 16.0625 -36.90625 C 18.519531 -36.90625 20.378906 -36.125 21.640625 -34.5625 C 22.910156 -33 23.546875 -30.851562 23.546875 -28.125 L 23.546875 0 L 14.8125 0 L 14.8125 -27.578125 C 14.8125 -28.378906 14.628906 -29.03125 14.265625 -29.53125 C 13.898438 -30.03125 13.367188 -30.28125 12.671875 -30.28125 C 12.066406 -30.28125 11.585938 -30.019531 11.234375 -29.5 C 10.890625 -28.988281 10.71875 -28.363281 10.71875 -27.625 L 10.71875 0 L 1.75 0 Z M 1.75 -43.09375"/></g></g></g><g clip-path="url(#14ed07e332)"><path fill-rule="nonzero" fill-opacity="1" d="M 61.171875 35.101562 L 61.171875 50.039062 L 30.011719 50.039062 L 30.011719 35.101562 Z M 61.171875 35.101562" fill="#cb6ce6"/></g><g clip-path="url(#619ea0bdb7)"><path fill-rule="nonzero" fill-opacity="1" d="M 76.042969 0.144531 L 92.328125 0.144531 L 92.328125 85.644531 L 76.042969 85.644531 Z M 76.042969 0.144531" fill="#d9d9d9"/></g><g clip-path="url(#cdd606ed31)"><path fill-rule="nonzero" fill-opacity="1" d="M 92.324219 0.144531 L 92.324219 15.085938 L 61.160156 15.085938 L 61.160156 0.144531 Z M 92.324219 0.144531" fill="#d9d9d9"/></g><g clip-path="url(#cb352959d1)"><path fill-rule="nonzero" fill-opacity="1" d="M 92.324219 71.40625 L 92.324219 86.34375 L 61.160156 86.34375 L 61.160156 71.40625 Z M 92.324219 71.40625" fill="#d9d9d9"/></g></svg>