<svg xmlns="http://www.w3.org/2000/svg" xmlns:xlink="http://www.w3.org/1999/xlink" width="128" zoomAndPan="magnify" viewBox="0 0 96 95.999999" height="128" preserveAspectRatio="xMidYMid meet" version="1.0"><defs><clipPath id="ab94d02356"><path d="M 0 0 L 16.324219 0 L 16.324219 95.792969 L 0 95.792969 Z M 0 0 " clip-rule="nonzero"/></clipPath><clipPath id="c1aa17171d"><path d="M 29.816406 34.058594 L 61.042969 34.058594 L 61.042969 49.035156 L 29.816406 49.035156 Z M 29.816406 34.058594 " clip-rule="nonzero"/></clipPath><clipPath id="4f37a26415"><path d="M 79.726562 0 L 95.273438 0 L 95.273438 95.792969 L 79.726562 95.792969 Z M 79.726562 0 " clip-rule="nonzero"/></clipPath><clipPath id="9fb91bc81e"><path d="M 61.042969 80.820312 L 92.265625 80.820312 L 92.265625 95.792969 L 61.042969 95.792969 Z M 61.042969 80.820312 " clip-rule="nonzero"/></clipPath><clipPath id="84f045d8f6"><path d="M 61.042969 0.00390625 L 92.265625 0.00390625 L 92.265625 14.976562 L 61.042969 14.976562 Z M 61.042969 0.00390625 " clip-rule="nonzero"/></clipPath></defs><g clip-path="url(#ab94d02356)"><path fill="#d9d9d9" d="M 0 0 L 16.324219 0 L 16.324219 95.78125 L 0 95.78125 Z M 0 0 " fill-opacity="1" fill-rule="nonzero"/></g><g clip-path="url(#c1aa17171d)"><path fill="#cb6ce6" d="M 61.042969 34.058594 L 61.042969 49.035156 L 29.804688 49.035156 L 29.804688 34.058594 Z M 61.042969 34.058594 " fill-opacity="1" fill-rule="nonzero"/></g><g clip-path="url(#4f37a26415)"><path fill="#d9d9d9" d="M 79.726562 0 L 95.273438 0 L 95.273438 95.765625 L 79.726562 95.765625 Z M 79.726562 0 " fill-opacity="1" fill-rule="nonzero"/></g><g clip-path="url(#9fb91bc81e)"><path fill="#d9d9d9" d="M 92.265625 80.820312 L 92.265625 95.792969 L 61.03125 95.792969 L 61.03125 80.820312 Z M 92.265625 80.820312 " fill-opacity="1" fill-rule="nonzero"/></g><g clip-path="url(#84f045d8f6)"><path fill="#d9d9d9" d="M 92.265625 0.00390625 L 92.265625 14.976562 L 61.03125 14.976562 L 61.03125 0.00390625 Z M 92.265625 0.00390625 " fill-opacity="1" fill-rule="nonzero"/></g></svg>