<svg version="1.0" preserveAspectRatio="xMidYMid meet" viewBox="0.31125 0 284.17125 85.93472440731071" zoomAndPan="magnify" xmlns:xlink="http://www.w3.org/1999/xlink" xmlns="http://www.w3.org/2000/svg" style="max-height: 500px" width="284.17125" height="85.93472440731071"><defs><g/><clipPath id="2dce20c244"><path clip-rule="nonzero" d="M 0.601562 0 L 16.824219 0 L 16.824219 85.863281 L 0.601562 85.863281 Z M 0.601562 0"/></clipPath><clipPath id="a16527c575"><path clip-rule="nonzero" d="M 30.507812 34.824219 L 61.539062 34.824219 L 61.539062 49.703125 L 30.507812 49.703125 Z M 30.507812 34.824219"/></clipPath><clipPath id="23fb6ac975"><path clip-rule="nonzero" d="M 76.351562 0 L 92.574219 0 L 92.574219 85.195312 L 76.351562 85.195312 Z M 76.351562 0"/></clipPath><clipPath id="b3c79cf2e2"><path clip-rule="nonzero" d="M 61.539062 0.00390625 L 92.566406 0.00390625 L 92.566406 14.882812 L 61.539062 14.882812 Z M 61.539062 0.00390625"/></clipPath><clipPath id="277fcfb88f"><path clip-rule="nonzero" d="M 61.539062 70.984375 L 92.566406 70.984375 L 92.566406 85.867188 L 61.539062 85.867188 Z M 61.539062 70.984375"/></clipPath></defs><g clip-path="url(#2dce20c244)"><path fill-rule="nonzero" fill-opacity="1" d="M 0.601562 0 L 16.824219 0 L 16.824219 85.867188 L 0.601562 85.867188 Z M 0.601562 0" fill="#545454"/></g><g clip-path="url(#a16527c575)"><path fill-rule="nonzero" fill-opacity="1" d="M 61.539062 34.824219 L 61.539062 49.703125 L 30.496094 49.703125 L 30.496094 34.824219 Z M 61.539062 34.824219" fill="#cb6ce6"/></g><g clip-path="url(#23fb6ac975)"><path fill-rule="nonzero" fill-opacity="1" d="M 76.351562 0 L 92.574219 0 L 92.574219 85.167969 L 76.351562 85.167969 Z M 76.351562 0" fill="#545454"/></g><g clip-path="url(#b3c79cf2e2)"><path fill-rule="nonzero" fill-opacity="1" d="M 92.566406 0.00390625 L 92.566406 14.882812 L 61.527344 14.882812 L 61.527344 0.00390625 Z M 92.566406 0.00390625" fill="#545454"/></g><g clip-path="url(#277fcfb88f)"><path fill-rule="nonzero" fill-opacity="1" d="M 92.566406 70.984375 L 92.566406 85.867188 L 61.527344 85.867188 L 61.527344 70.984375 Z M 92.566406 70.984375" fill="#545454"/></g><g fill-opacity="1" fill="#545454"><g transform="translate(106.106027, 85.188803)"><g><path d="M 0.75 0 L 4.875 -42.6875 L 19.328125 -42.6875 L 23.40625 0 L 15.296875 0 L 14.703125 -6.90625 L 9.546875 -6.90625 L 9.046875 0 Z M 10.1875 -13.71875 L 14.0625 -13.71875 L 12.171875 -35.421875 L 11.78125 -35.421875 Z M 10.1875 -13.71875"/></g></g></g><g fill-opacity="1" fill="#545454"><g transform="translate(130.200728, 85.188803)"><g><path d="M 5.5625 0 L 1.140625 -36.375 L 8.59375 -36.375 L 11.03125 -16.84375 L 13.125 -36.375 L 20.71875 -36.375 L 23.203125 -16.84375 L 25.234375 -36.375 L 33.4375 -36.375 L 28.765625 0 L 20.078125 0 L 17.484375 -20.671875 L 15.203125 0 Z M 5.5625 0"/></g></g></g><g fill-opacity="1" fill="#545454"><g transform="translate(164.777876, 85.188803)"><g><path d="M 11.71875 0.390625 C 4.53125 0.390625 0.9375 -3.25 0.9375 -10.53125 L 1 -13.421875 L 9.6875 -13.421875 L 9.734375 -9.140625 C 9.734375 -8.273438 9.898438 -7.617188 10.234375 -7.171875 C 10.566406 -6.734375 11.113281 -6.515625 11.875 -6.515625 C 13.03125 -6.515625 13.609375 -7.457031 13.609375 -9.34375 C 13.609375 -10.726562 13.332031 -11.816406 12.78125 -12.609375 C 12.238281 -13.410156 11.375 -14.257812 10.1875 -15.15625 L 5.5625 -18.734375 C 3.976562 -19.960938 2.835938 -21.226562 2.140625 -22.53125 C 1.441406 -23.84375 1.09375 -25.691406 1.09375 -28.078125 C 1.09375 -29.929688 1.582031 -31.507812 2.5625 -32.8125 C 3.539062 -34.125 4.835938 -35.109375 6.453125 -35.765625 C 8.078125 -36.429688 9.882812 -36.765625 11.875 -36.765625 C 18.925781 -36.765625 22.453125 -33.253906 22.453125 -26.234375 L 22.453125 -25.546875 L 13.46875 -25.546875 L 13.46875 -26.9375 C 13.46875 -27.789062 13.328125 -28.523438 13.046875 -29.140625 C 12.765625 -29.753906 12.289062 -30.0625 11.625 -30.0625 C 11.03125 -30.0625 10.570312 -29.882812 10.25 -29.53125 C 9.9375 -29.1875 9.78125 -28.71875 9.78125 -28.125 C 9.78125 -26.800781 10.296875 -25.773438 11.328125 -25.046875 L 16.6875 -21.109375 C 18.613281 -19.691406 20.085938 -18.144531 21.109375 -16.46875 C 22.140625 -14.800781 22.65625 -12.691406 22.65625 -10.140625 C 22.65625 -6.753906 21.691406 -4.148438 19.765625 -2.328125 C 17.847656 -0.515625 15.164062 0.390625 11.71875 0.390625 Z M 11.71875 0.390625"/></g></g></g><g fill-opacity="1" fill="#cb6ce6"><g transform="translate(188.381534, 85.188803)"><g><path d="M 1.890625 -42.6875 L 13.65625 -42.6875 C 16.707031 -42.6875 18.992188 -41.835938 20.515625 -40.140625 C 22.046875 -38.453125 22.828125 -35.953125 22.859375 -32.640625 L 22.953125 -12.671875 C 22.984375 -8.460938 22.253906 -5.296875 20.765625 -3.171875 C 19.273438 -1.054688 16.804688 0 13.359375 0 L 1.890625 0 Z M 11.96875 -7.546875 C 13.53125 -7.546875 14.3125 -8.3125 14.3125 -9.84375 L 14.3125 -31.84375 C 14.3125 -32.8125 14.234375 -33.535156 14.078125 -34.015625 C 13.929688 -34.492188 13.660156 -34.816406 13.265625 -34.984375 C 12.867188 -35.148438 12.253906 -35.234375 11.421875 -35.234375 L 10.484375 -35.234375 L 10.484375 -7.546875 Z M 11.96875 -7.546875"/></g></g></g><g fill-opacity="1" fill="#cb6ce6"><g transform="translate(212.873685, 85.188803)"><g><path d="M 8.34375 0.390625 C 5.53125 0.390625 3.601562 -0.539062 2.5625 -2.40625 C 1.519531 -4.28125 1 -6.957031 1 -10.4375 C 1 -13.28125 1.367188 -15.460938 2.109375 -16.984375 C 2.859375 -18.515625 3.894531 -19.632812 5.21875 -20.34375 C 6.539062 -21.0625 8.5625 -21.847656 11.28125 -22.703125 L 13.65625 -23.5 L 13.65625 -27.234375 C 13.65625 -28.191406 13.460938 -28.925781 13.078125 -29.4375 C 12.703125 -29.945312 12.25 -30.203125 11.71875 -30.203125 C 11.257812 -30.203125 10.851562 -29.988281 10.5 -29.5625 C 10.15625 -29.132812 9.984375 -28.554688 9.984375 -27.828125 L 9.984375 -25.640625 L 1.546875 -25.640625 L 1.546875 -26.828125 C 1.546875 -30.410156 2.378906 -32.960938 4.046875 -34.484375 C 5.722656 -36.003906 8.445312 -36.765625 12.21875 -36.765625 C 15.238281 -36.765625 17.691406 -35.976562 19.578125 -34.40625 C 21.460938 -32.832031 22.40625 -30.601562 22.40625 -27.71875 L 22.40625 0 L 13.765625 0 L 13.765625 -4.328125 C 13.335938 -2.835938 12.648438 -1.675781 11.703125 -0.84375 C 10.753906 -0.0195312 9.632812 0.390625 8.34375 0.390625 Z M 11.78125 -6.359375 C 12.4375 -6.359375 12.90625 -6.628906 13.1875 -7.171875 C 13.46875 -7.722656 13.609375 -8.394531 13.609375 -9.1875 L 13.609375 -19.328125 C 12.316406 -18.828125 11.363281 -18.195312 10.75 -17.4375 C 10.144531 -16.675781 9.84375 -15.617188 9.84375 -14.265625 L 9.84375 -9.59375 C 9.84375 -7.4375 10.488281 -6.359375 11.78125 -6.359375 Z M 11.78125 -6.359375"/></g></g></g><g fill-opacity="1" fill="#cb6ce6"><g transform="translate(236.869037, 85.188803)"><g><path d="M 11.71875 0.390625 C 4.53125 0.390625 0.9375 -3.25 0.9375 -10.53125 L 1 -13.421875 L 9.6875 -13.421875 L 9.734375 -9.140625 C 9.734375 -8.273438 9.898438 -7.617188 10.234375 -7.171875 C 10.566406 -6.734375 11.113281 -6.515625 11.875 -6.515625 C 13.03125 -6.515625 13.609375 -7.457031 13.609375 -9.34375 C 13.609375 -10.726562 13.332031 -11.816406 12.78125 -12.609375 C 12.238281 -13.410156 11.375 -14.257812 10.1875 -15.15625 L 5.5625 -18.734375 C 3.976562 -19.960938 2.835938 -21.226562 2.140625 -22.53125 C 1.441406 -23.84375 1.09375 -25.691406 1.09375 -28.078125 C 1.09375 -29.929688 1.582031 -31.507812 2.5625 -32.8125 C 3.539062 -34.125 4.835938 -35.109375 6.453125 -35.765625 C 8.078125 -36.429688 9.882812 -36.765625 11.875 -36.765625 C 18.925781 -36.765625 22.453125 -33.253906 22.453125 -26.234375 L 22.453125 -25.546875 L 13.46875 -25.546875 L 13.46875 -26.9375 C 13.46875 -27.789062 13.328125 -28.523438 13.046875 -29.140625 C 12.765625 -29.753906 12.289062 -30.0625 11.625 -30.0625 C 11.03125 -30.0625 10.570312 -29.882812 10.25 -29.53125 C 9.9375 -29.1875 9.78125 -28.71875 9.78125 -28.125 C 9.78125 -26.800781 10.296875 -25.773438 11.328125 -25.046875 L 16.6875 -21.109375 C 18.613281 -19.691406 20.085938 -18.144531 21.109375 -16.46875 C 22.140625 -14.800781 22.65625 -12.691406 22.65625 -10.140625 C 22.65625 -6.753906 21.691406 -4.148438 19.765625 -2.328125 C 17.847656 -0.515625 15.164062 0.390625 11.71875 0.390625 Z M 11.71875 0.390625"/></g></g></g><g fill-opacity="1" fill="#cb6ce6"><g transform="translate(260.466951, 85.188803)"><g><path d="M 1.734375 -42.9375 L 10.6875 -42.9375 L 10.6875 -32.796875 C 11.613281 -35.441406 13.382812 -36.765625 16 -36.765625 C 18.445312 -36.765625 20.300781 -35.984375 21.5625 -34.421875 C 22.820312 -32.867188 23.453125 -30.738281 23.453125 -28.03125 L 23.453125 0 L 14.75 0 L 14.75 -27.484375 C 14.75 -28.273438 14.566406 -28.914062 14.203125 -29.40625 C 13.835938 -29.90625 13.3125 -30.15625 12.625 -30.15625 C 12.019531 -30.15625 11.546875 -29.898438 11.203125 -29.390625 C 10.859375 -28.878906 10.6875 -28.257812 10.6875 -27.53125 L 10.6875 0 L 1.734375 0 Z M 1.734375 -42.9375"/></g></g></g></svg>