<svg xmlns="http://www.w3.org/2000/svg" xmlns:xlink="http://www.w3.org/1999/xlink" width="124" zoomAndPan="magnify" viewBox="0 0 93 86.999996" height="116" preserveAspectRatio="xMidYMid meet" version="1.0"><defs><clipPath id="2f0e2f188a"><path d="M 0 0 L 16.324219 0 L 16.324219 86.40625 L 0 86.40625 Z M 0 0 " clip-rule="nonzero"/></clipPath><clipPath id="e4505c646a"><path d="M 30.097656 35.042969 L 61.320312 35.042969 L 61.320312 50.015625 L 30.097656 50.015625 Z M 30.097656 35.042969 " clip-rule="nonzero"/></clipPath><clipPath id="c27730500b"><path d="M 76.226562 0 L 92.550781 0 L 92.550781 85.730469 L 76.226562 85.730469 Z M 76.226562 0 " clip-rule="nonzero"/></clipPath><clipPath id="c88f93a841"><path d="M 61.320312 0.00390625 L 92.542969 0.00390625 L 92.542969 14.976562 L 61.320312 14.976562 Z M 61.320312 0.00390625 " clip-rule="nonzero"/></clipPath><clipPath id="04233041f5"><path d="M 61.320312 71.433594 L 92.542969 71.433594 L 92.542969 86.40625 L 61.320312 86.40625 Z M 61.320312 71.433594 " clip-rule="nonzero"/></clipPath></defs><g clip-path="url(#2f0e2f188a)"><path fill="#d9d9d9" d="M 0 0 L 16.324219 0 L 16.324219 86.40625 L 0 86.40625 Z M 0 0 " fill-opacity="1" fill-rule="nonzero"/></g><g clip-path="url(#e4505c646a)"><path fill="#cb6ce6" d="M 61.320312 35.042969 L 61.320312 50.015625 L 30.085938 50.015625 L 30.085938 35.042969 Z M 61.320312 35.042969 " fill-opacity="1" fill-rule="nonzero"/></g><g clip-path="url(#c27730500b)"><path fill="#d9d9d9" d="M 76.226562 0 L 92.550781 0 L 92.550781 85.703125 L 76.226562 85.703125 Z M 76.226562 0 " fill-opacity="1" fill-rule="nonzero"/></g><g clip-path="url(#c88f93a841)"><path fill="#d9d9d9" d="M 92.542969 0.00390625 L 92.542969 14.976562 L 61.308594 14.976562 L 61.308594 0.00390625 Z M 92.542969 0.00390625 " fill-opacity="1" fill-rule="nonzero"/></g><g clip-path="url(#04233041f5)"><path fill="#d9d9d9" d="M 92.542969 71.433594 L 92.542969 86.40625 L 61.308594 86.40625 L 61.308594 71.433594 Z M 92.542969 71.433594 " fill-opacity="1" fill-rule="nonzero"/></g></svg>